<?xml version="1.0" encoding="UTF-8" standalone="no"?>
<svg width="512" height="512" viewBox="0 0 512 512" xmlns="http://www.w3.org/2000/svg">
  <defs>
    <linearGradient id="gradient" x1="0%" y1="0%" x2="100%" y2="100%">
      <stop offset="0%" stop-color="#1b3a59" />
      <stop offset="100%" stop-color="#48a9a6" />
    </linearGradient>
  </defs>
  <!-- Main Background -->
  <rect x="0" y="0" width="512" height="512" fill="url(#gradient)" rx="64" ry="64" />
  
  <!-- Lab Flask -->
  <path d="M256 96 L176 320 L176 400 L336 400 L336 320 L256 96" fill="none" stroke="#ffffff" stroke-width="24" stroke-linejoin="round" />
  
  <!-- Liquid in flask -->
  <path d="M176 320 L336 320 L336 400 L176 400 Z" fill="#d4f4dd" stroke="none" />
  
  <!-- Bubbles -->
  <circle cx="220" cy="360" r="15" fill="#ffffff" opacity="0.6" />
  <circle cx="270" cy="380" r="10" fill="#ffffff" opacity="0.4" />
  <circle cx="310" cy="350" r="12" fill="#ffffff" opacity="0.5" />
  
  <!-- Flask top -->
  <rect x="236" y="66" width="40" height="30" fill="#ffffff" stroke="none" />
  
  <!-- Fork tines -->
  <path d="M175 100 L175 190 M205 100 L205 180 M235 100 L235 190" stroke="#e14658" stroke-width="12" stroke-linecap="round" />
  
  <!-- Fork handle -->
  <path d="M205 190 L205 240" stroke="#e14658" stroke-width="16" stroke-linecap="round" />
  
  <!-- "C" Letter for CulinaryLab -->
  <path d="M370 130 C330 130, 330 210, 370 210" stroke="#ffffff" stroke-width="24" stroke-linecap="round" fill="none" />
  
  <!-- "L" Mark -->
  <path d="M310 126 L310 214 L360 214" stroke="#e14658" stroke-width="12" stroke-linecap="round" fill="none" />
</svg>